<?xml version="1.0" standalone="no"?>
<!DOCTYPE svg PUBLIC "-//W3C//DTD SVG 20010904//EN"
 "http://www.w3.org/TR/2001/REC-SVG-20010904/DTD/svg10.dtd">
<svg version="1.0" xmlns="http://www.w3.org/2000/svg"
 width="1344.000000pt" height="1344.000000pt" viewBox="0 0 1344.000000 1344.000000"
 preserveAspectRatio="xMidYMid meet">
<metadata>
Created by potrace 1.14, written by Peter Selinger 2001-2017
</metadata>
<g transform="translate(0.000000,1344.000000) scale(0.100000,-0.100000)"
fill="#000000" stroke="none">
<path d="M3051 11509 c-262 -34 -481 -128 -674 -289 -86 -72 -94 -80 -168
-170 -132 -159 -225 -360 -266 -572 -17 -88 -18 -283 -18 -3753 0 -3839 -1
-3707 41 -3865 61 -225 205 -461 370 -606 31 -27 66 -57 78 -68 33 -30 145
-101 211 -133 79 -40 190 -80 295 -106 l85 -21 3670 -4 c4076 -3 3756 -8 3972
63 250 83 460 233 620 445 63 84 173 288 173 322 0 17 -155 18 -3485 20
l-3484 3 267 109 c147 60 331 135 410 167 l142 59 3115 0 3115 0 -3 3663 -3
3662 -21 85 c-91 363 -287 632 -594 818 -123 74 -235 117 -399 155 l-95 21
-3645 2 c-2005 1 -3674 -2 -3709 -7z m3949 -1604 c763 -72 1464 -398 1990
-925 520 -521 834 -1159 931 -1890 28 -204 30 -582 5 -775 -83 -634 -307
-1169 -693 -1650 -293 -366 -660 -660 -1088 -870 -337 -166 -637 -257 -1030
-311 -166 -23 -625 -24 -780 -2 l-99 14 -103 -43 c-56 -24 -106 -43 -112 -43
-5 0 -26 27 -46 60 -159 262 -561 640 -790 742 -270 121 -584 203 -815 215
-63 3 -122 9 -131 14 -11 6 -19 38 -28 118 l-13 110 -80 108 c-205 278 -367
595 -472 922 -302 938 -154 1980 397 2791 430 635 1055 1090 1782 1300 216 62
476 107 690 119 130 8 381 5 485 -4z"/>
<path d="M6530 9449 c-796 -52 -1545 -457 -2021 -1091 -368 -491 -559 -1062
-559 -1673 0 -165 20 -409 36 -424 3 -3 92 -6 197 -6 147 1 212 5 277 19 107
23 248 70 322 107 l56 28 -1 -112 c-1 -235 71 -434 217 -594 137 -150 313
-224 530 -224 172 1 337 48 471 137 39 25 72 47 75 49 3 2 4 -45 2 -103 -4
-121 8 -205 45 -312 89 -258 288 -444 533 -496 85 -18 302 -16 321 3 6 6 18 9
25 6 21 -8 155 37 147 50 -3 6 -1 7 5 3 17 -10 146 60 190 103 20 21 49 62 65
92 15 29 59 108 97 174 39 66 134 231 213 367 78 136 151 263 162 282 11 19
67 115 124 213 57 98 120 207 141 243 20 36 79 139 132 230 53 91 105 181 115
200 11 19 119 206 240 415 120 209 236 409 256 445 48 84 51 90 147 253 l81
137 -30 50 c-17 28 -31 53 -31 55 0 18 -84 134 -92 128 -7 -3 -8 -1 -4 5 8 14
-69 132 -86 132 -6 0 -9 3 -5 6 10 10 -44 75 -56 67 -5 -3 -7 -2 -4 4 9 14
-62 95 -75 87 -7 -5 -8 -2 -3 5 9 16 -123 153 -138 144 -6 -3 -7 -2 -4 4 8 13
-67 86 -78 76 -4 -5 -5 -3 -1 4 7 14 -27 36 -39 25 -3 -4 -5 -1 -3 7 7 29
-367 301 -394 285 -7 -4 -10 -4 -6 1 23 25 -256 165 -489 246 -237 82 -484
131 -743 149 -159 11 -190 11 -360 -1z"/>
<path d="M9438 7090 c-14 -22 -396 -682 -893 -1545 -89 -154 -308 -534 -488
-845 -179 -311 -329 -573 -332 -582 -6 -16 -4 -17 26 -6 17 6 107 48 198 94
469 233 843 570 1117 1007 264 420 406 888 421 1387 5 184 -7 416 -26 487 l-7
28 -16 -25z"/>
</g>
</svg>
